<svg width="32" height="32" viewBox="0 0 32 32" fill="none" xmlns="http://www.w3.org/2000/svg">
<g clip-path="url(#clip0)">
<path d="M15.9177 5C11.777 5 8.43765 8.27177 7.26023 10.2481C7.14112 10.46 7.06497 10.6947 7.03638 10.9379C7.04998 11.0399 7.1415 10.92 7.21324 10.9774C8.21008 11.7718 9.19827 12.5776 10.2025 13.363C10.2792 13.4217 10.351 13.5122 10.4684 13.4612C10.7064 12.7672 11.0518 12.1174 11.4913 11.5372C13.6482 8.71166 17.575 8.3776 19.9558 10.5796C20.1067 10.7186 20.1747 10.6727 20.291 10.5515C21.1419 9.66922 21.994 8.78689 22.8561 7.9173C23.0131 7.7592 23.0032 7.68142 22.8437 7.53479C21.5562 6.38853 19.1977 5 15.9177 5Z" fill="#E94335"/>
<path d="M7.11929 10.5898C8.23239 11.4964 9.32076 12.5929 10.466 13.4612C10.0409 14.7751 10.0352 16.1947 10.4499 17.5121C10.4339 17.6536 10.3263 17.7148 10.2273 17.79C9.28118 18.541 8.33504 19.2908 7.39632 20.0507C7.3048 20.1246 7.2207 20.2279 7.08218 20.2113C6.49348 19.0447 6 17.9596 6 15.4937C6 13.0277 6.97211 10.6115 7.11929 10.5898Z" fill="#FABB04"/>
<path d="M7.07715 20.2112L10.4449 17.512C10.8504 18.6649 11.5472 19.6852 12.4633 20.4675C14.5547 22.2398 17.5106 22.1812 19.4969 20.9469C19.5563 20.91 19.6206 20.8781 19.6812 20.8449C19.9904 20.9138 20.192 21.1586 20.4233 21.3435C21.2024 21.9606 21.9828 22.5752 22.7546 23.2012C22.8362 23.2675 22.955 23.3121 22.9426 23.4562C21.8794 24.4964 20.5716 25.2329 19.1481 25.5932C18.0071 25.9043 16.8273 26.0376 15.648 25.9885C13.5517 25.8826 11.5815 25.1214 9.75849 23.6449C8.6235 22.725 7.70655 21.5508 7.07715 20.2112Z" fill="#34A753"/>
<path d="M22.95 23.4564L19.6923 20.8451C20.6508 20.126 21.3373 19.2105 21.639 18.0145C21.733 17.6397 21.733 17.632 21.3571 17.632C19.7492 17.632 18.1328 17.6243 16.5212 17.6384C16.2467 17.6384 16.1873 17.5555 16.1898 17.2877C16.2046 16.158 16.2021 15.0284 16.1898 13.8987C16.1898 13.6602 16.243 13.5774 16.4903 13.5786C19.513 13.588 22.5357 13.588 25.5584 13.5786C25.7761 13.5786 25.849 13.6398 25.8763 13.8617C26.2869 17.1475 25.7526 20.1757 23.6142 22.7768C23.4171 23.0272 23.1944 23.2551 22.95 23.4564Z" fill="#4284F3"/>
</g>
<defs>
<clipPath id="clip0">
<rect width="20" height="21" fill="white" transform="translate(6 5)"/>
</clipPath>
</defs>
</svg>
