<svg width="164" height="32" viewBox="0 0 164 32" fill="none" xmlns="http://www.w3.org/2000/svg">
<path d="M140.484 16.0816C139.698 15.5566 138.832 15.1833 138.011 14.7166C137.48 14.4133 136.914 14.1449 136.452 13.7599C135.666 13.1066 135.828 11.8233 136.648 11.2633C137.827 10.4699 139.779 10.9133 139.987 12.5349C139.987 12.5699 140.022 12.5933 140.056 12.5933H141.835C141.882 12.5933 141.916 12.5583 141.905 12.5116C141.812 11.3916 141.385 10.4583 140.599 9.86328C139.848 9.29161 138.993 8.98828 138.081 8.98828C133.379 8.98828 132.951 14.0166 135.481 15.6033C135.77 15.79 138.254 17.0499 139.132 17.5983C140.01 18.1466 140.287 19.1499 139.906 19.9433C139.56 20.6666 138.658 21.1683 137.757 21.1099C136.775 21.0516 136.013 20.515 135.747 19.675C135.701 19.5233 135.678 19.2316 135.678 19.1033C135.678 19.0683 135.643 19.0333 135.609 19.0333H133.679C133.645 19.0333 133.61 19.0683 133.61 19.1033C133.61 20.515 133.956 21.2966 134.904 22.0083C135.793 22.685 136.764 22.965 137.769 22.965C140.403 22.965 141.766 21.46 142.043 19.8966C142.286 18.3683 141.835 16.9916 140.484 16.0816Z" fill="#161616"/>
<path d="M56.7141 9.24487H55.8591H54.9234C54.8887 9.24487 54.8656 9.26821 54.8541 9.29154L53.2713 14.5649C53.2482 14.6349 53.1558 14.6349 53.1327 14.5649L51.5499 9.29154C51.5384 9.25654 51.5153 9.24487 51.4806 9.24487H50.5448H49.6899H48.5346C48.5 9.24487 48.4653 9.27987 48.4653 9.31487V22.7782C48.4653 22.8132 48.5 22.8482 48.5346 22.8482H50.464C50.4986 22.8482 50.5333 22.8132 50.5333 22.7782V12.5465C50.5333 12.4649 50.6488 12.4532 50.6719 12.5232L52.2662 17.8315L52.3817 18.2049C52.3933 18.2399 52.4164 18.2515 52.4511 18.2515H53.9298C53.9645 18.2515 53.9876 18.2282 53.9991 18.2049L54.1147 17.8315L55.709 12.5232C55.7321 12.4415 55.8476 12.4649 55.8476 12.5465V22.7782C55.8476 22.8132 55.8822 22.8482 55.9169 22.8482H57.8462C57.8809 22.8482 57.9156 22.8132 57.9156 22.7782V9.31487C57.9156 9.27987 57.8809 9.24487 57.8462 9.24487H56.7141Z" fill="#161616"/>
<path d="M110.943 9.24487C110.909 9.24487 110.885 9.26821 110.874 9.29154L109.291 14.5649C109.268 14.6349 109.176 14.6349 109.153 14.5649L107.57 9.29154C107.558 9.25654 107.535 9.24487 107.5 9.24487H104.566C104.531 9.24487 104.497 9.27987 104.497 9.31487V22.7782C104.497 22.8132 104.531 22.8482 104.566 22.8482H106.495C106.53 22.8482 106.565 22.8132 106.565 22.7782V12.5465C106.565 12.4649 106.68 12.4532 106.703 12.5232L108.298 17.8315L108.413 18.2049C108.425 18.2399 108.448 18.2515 108.482 18.2515H109.961C109.996 18.2515 110.019 18.2282 110.031 18.2049L110.146 17.8315L111.74 12.5232C111.763 12.4415 111.879 12.4649 111.879 12.5465V22.7782C111.879 22.8132 111.914 22.8482 111.948 22.8482H113.878C113.912 22.8482 113.947 22.8132 113.947 22.7782V9.31487C113.947 9.27987 113.912 9.24487 113.878 9.24487H110.943Z" fill="#161616"/>
<path d="M86.0583 9.24487H82.4654H80.536H76.9431C76.9084 9.24487 76.8738 9.27987 76.8738 9.31487V10.9949C76.8738 11.0299 76.9084 11.0649 76.9431 11.0649H80.4667V22.7782C80.4667 22.8132 80.5014 22.8482 80.536 22.8482H82.4654C82.5 22.8482 82.5347 22.8132 82.5347 22.7782V11.0649H86.0583C86.093 11.0649 86.1276 11.0299 86.1276 10.9949V9.31487C86.1276 9.27987 86.1045 9.24487 86.0583 9.24487Z" fill="#161616"/>
<path d="M97.4379 22.8482H99.1939C99.2401 22.8482 99.2748 22.8016 99.2632 22.7549L95.6356 9.24491C95.6241 9.20991 95.601 9.19824 95.5663 9.19824H94.8962H93.7178H93.0478C93.0131 9.19824 92.99 9.22158 92.9785 9.24491L89.3509 22.7549C89.3393 22.8016 89.374 22.8482 89.4202 22.8482H91.1762C91.2109 22.8482 91.234 22.8249 91.2455 22.8016L92.2968 18.8699C92.3084 18.8349 92.3315 18.8232 92.3662 18.8232H96.2479C96.2826 18.8232 96.3057 18.8466 96.3172 18.8699L97.3685 22.8016C97.3801 22.8249 97.4148 22.8482 97.4379 22.8482ZM92.8283 16.8982L94.2377 11.6366C94.2608 11.5666 94.3532 11.5666 94.3764 11.6366L95.7858 16.8982C95.7974 16.9449 95.7627 16.9916 95.7165 16.9916H92.8976C92.8514 16.9916 92.8167 16.9449 92.8283 16.8982Z" fill="#161616"/>
<path d="M127.383 22.8482H129.139C129.185 22.8482 129.22 22.8016 129.208 22.7549L125.581 9.24491C125.569 9.20991 125.546 9.19824 125.511 9.19824H124.841H123.663H122.993C122.958 9.19824 122.935 9.22158 122.924 9.24491L119.296 22.7549C119.284 22.8016 119.319 22.8482 119.365 22.8482H121.121C121.156 22.8482 121.179 22.8249 121.191 22.8016L122.242 18.8699C122.253 18.8349 122.277 18.8232 122.311 18.8232H126.193C126.228 18.8232 126.251 18.8466 126.262 18.8699L127.314 22.8016C127.325 22.8249 127.348 22.8482 127.383 22.8482ZM122.773 16.8982L124.183 11.6366C124.206 11.5666 124.298 11.5666 124.321 11.6366L125.731 16.8982C125.742 16.9449 125.708 16.9916 125.662 16.9916H122.843C122.796 16.9916 122.762 16.9449 122.773 16.8982Z" fill="#161616"/>
<path d="M65.7484 20.8533V16.6766C65.7484 16.6416 65.783 16.6066 65.8177 16.6066H70.9587C70.9934 16.6066 71.028 16.5716 71.028 16.5366V14.8566C71.028 14.8216 70.9934 14.7866 70.9587 14.7866H65.8177C65.783 14.7866 65.7484 14.7516 65.7484 14.7166V11.1466C65.7484 11.1116 65.783 11.0766 65.8177 11.0766H71.6635C71.6981 11.0766 71.7328 11.0416 71.7328 11.0066V9.32659C71.7328 9.29159 71.6981 9.25659 71.6635 9.25659H65.7484H63.7497C63.7151 9.25659 63.6804 9.29159 63.6804 9.32659V11.0766V14.7983V16.6183V20.9349V22.7783C63.6804 22.8133 63.7151 22.8483 63.7497 22.8483H65.7484H71.9061C71.9407 22.8483 71.9754 22.8133 71.9754 22.7783V21.0049C71.9754 20.9699 71.9407 20.9349 71.9061 20.9349H65.8061C65.7715 20.9233 65.7484 20.8999 65.7484 20.8533Z" fill="#161616"/>
<path d="M158.114 22.7316L151.436 15.7666C151.413 15.7433 151.413 15.6966 151.436 15.6733L157.443 9.37326C157.49 9.32659 157.455 9.25659 157.397 9.25659H154.937C154.913 9.25659 154.902 9.26826 154.89 9.27992L149.796 14.6233C149.749 14.6699 149.68 14.6349 149.68 14.5766V9.32659C149.68 9.29159 149.645 9.25659 149.611 9.25659H147.681C147.647 9.25659 147.612 9.29159 147.612 9.32659V22.7899C147.612 22.8249 147.647 22.8599 147.681 22.8599H149.611C149.645 22.8599 149.68 22.8249 149.68 22.7899V16.8633C149.68 16.8049 149.761 16.7699 149.796 16.8166L155.572 22.8366C155.583 22.8483 155.607 22.8599 155.618 22.8599H158.079C158.125 22.8483 158.16 22.7666 158.114 22.7316Z" fill="#161616"/>
<path d="M35.2835 2L23.6035 10.75L25.7755 5.59333L35.2835 2Z" fill="#E17726"/>
<path d="M8.34216 2L19.9181 10.8317L17.8502 5.59333L8.34216 2Z" fill="#E27625"/>
<path d="M31.0783 22.2883L27.9706 27.095L34.625 28.95L36.5312 22.3933L31.0783 22.2883Z" fill="#E27625"/>
<path d="M7.10608 22.3933L9.00075 28.95L15.6436 27.095L12.5475 22.2883L7.10608 22.3933Z" fill="#E27625"/>
<path d="M15.2855 14.1684L13.437 16.9918L20.0221 17.2951L19.8026 10.1201L15.2855 14.1684Z" fill="#E27625"/>
<path d="M28.3402 14.1683L23.7537 10.0383L23.6035 17.295L30.1886 16.9917L28.3402 14.1683Z" fill="#E27625"/>
<path d="M15.6437 27.0949L19.6294 25.1466L16.1982 22.4399L15.6437 27.0949Z" fill="#E27625"/>
<path d="M23.9963 25.1466L27.9705 27.0949L27.4275 22.4399L23.9963 25.1466Z" fill="#E27625"/>
<path d="M27.9705 27.0951L23.9963 25.1467L24.3198 27.7601L24.2852 28.8684L27.9705 27.0951Z" fill="#D5BFB2"/>
<path d="M15.6436 27.0951L19.3405 28.8684L19.3174 27.7601L19.6293 25.1467L15.6436 27.0951Z" fill="#D5BFB2"/>
<path d="M19.4098 20.7134L16.1057 19.7334L18.4394 18.6484L19.4098 20.7134Z" fill="#233447"/>
<path d="M24.2158 20.7134L25.1863 18.6484L27.5315 19.7334L24.2158 20.7134Z" fill="#233447"/>
<path d="M15.6435 27.095L16.2212 22.2883L12.5474 22.3933L15.6435 27.095Z" fill="#CC6228"/>
<path d="M27.4043 22.2883L27.9704 27.095L31.0781 22.3933L27.4043 22.2883Z" fill="#CC6228"/>
<path d="M30.1885 16.9917L23.6034 17.295L24.2157 20.7134L25.1861 18.6484L27.5314 19.7334L30.1885 16.9917Z" fill="#CC6228"/>
<path d="M16.1056 19.7334L18.4393 18.6484L19.4097 20.7134L20.022 17.295L13.4369 16.9917L16.1056 19.7334Z" fill="#CC6228"/>
<path d="M13.437 16.9917L16.1981 22.44L16.1057 19.7334L13.437 16.9917Z" fill="#E27525"/>
<path d="M27.5315 19.7334L27.4275 22.44L30.1886 16.9917L27.5315 19.7334Z" fill="#E27525"/>
<path d="M20.0222 17.2949L19.4099 20.7133L20.184 24.7499L20.3572 19.4299L20.0222 17.2949Z" fill="#E27525"/>
<path d="M23.6035 17.2949L23.28 19.4183L23.4418 24.7499L24.2158 20.7133L23.6035 17.2949Z" fill="#E27525"/>
<path d="M24.2158 20.7134L23.4418 24.7501L23.9963 25.1467L27.4275 22.4401L27.5315 19.7334L24.2158 20.7134Z" fill="#F5841F"/>
<path d="M16.1057 19.7334L16.1981 22.4401L19.6293 25.1467L20.1839 24.7501L19.4098 20.7134L16.1057 19.7334Z" fill="#F5841F"/>
<path d="M24.2851 28.8683L24.3198 27.76L24.0194 27.5033H19.6062L19.3174 27.76L19.3405 28.8683L15.6436 27.095L16.9375 28.1683L19.56 30H24.054L26.6881 28.1683L27.9705 27.095L24.2851 28.8683Z" fill="#C0AC9D"/>
<path d="M23.9963 25.1467L23.4417 24.75H20.1838L19.6293 25.1467L19.3174 27.76L19.6062 27.5033H24.0194L24.3198 27.76L23.9963 25.1467Z" fill="#161616"/>
<path d="M35.7802 11.3217L36.7622 6.49167L35.2835 2L23.9963 10.4583L28.3402 14.1683L34.4748 15.9767L35.8265 14.3783L35.2373 13.9467L36.173 13.0833L35.4568 12.5233L36.3926 11.8L35.7802 11.3217Z" fill="#763E1A"/>
<path d="M6.8634 6.49167L7.85695 11.3217L7.22154 11.8L8.16888 12.5233L7.4526 13.0833L8.38838 13.9467L7.79919 14.3783L9.15087 15.9767L15.2854 14.1683L19.6293 10.4583L8.34217 2L6.8634 6.49167Z" fill="#763E1A"/>
<path d="M34.4747 15.9765L28.3402 14.1682L30.1886 16.9915L27.4275 22.4399L31.0782 22.3932H36.5311L34.4747 15.9765Z" fill="#F5841F"/>
<path d="M15.2855 14.1682L9.15093 15.9765L7.10608 22.3932H12.5475L16.1982 22.4399L13.437 16.9915L15.2855 14.1682Z" fill="#F5841F"/>
<path d="M23.6035 17.2949L23.9963 10.4583L25.7755 5.59326H17.8502L19.6294 10.4583L20.0222 17.2949L20.1723 19.4416L20.1839 24.7499H23.4418L23.4534 19.4416L23.6035 17.2949Z" fill="#F5841F"/>
</svg>
