<svg width="32" height="32" viewBox="0 0 32 32" fill="none" xmlns="http://www.w3.org/2000/svg">
<path d="M30 7.60594C28.9512 8.05443 27.8391 8.34913 26.7004 8.48031C27.9005 7.7865 28.7986 6.6943 29.2271 5.40743C28.0987 6.05382 26.8647 6.50963 25.578 6.75531C24.7125 5.86328 23.5668 5.2722 22.3186 5.0737C21.0703 4.87519 19.7892 5.08034 18.6738 5.65734C17.5585 6.23435 16.6711 7.15099 16.1493 8.26517C15.6274 9.37935 15.5003 10.6288 15.7876 11.82C13.5026 11.7099 11.267 11.1363 9.22616 10.1364C7.18531 9.1366 5.3848 7.73287 3.9416 6.01642C3.20767 7.23957 2.9829 8.687 3.31294 10.0646C3.64299 11.4422 4.50309 12.6467 5.7185 13.4332C4.80652 13.4042 3.91494 13.1648 3.11815 12.7348C3.1019 14.0294 3.55333 15.2888 4.3946 16.296C5.23587 17.3031 6.41425 17.9949 7.72655 18.2521C6.87851 18.4745 5.98918 18.5069 5.1262 18.347C5.49412 19.4525 6.21079 20.4189 7.17564 21.1105C8.14049 21.8022 9.30509 22.1844 10.506 22.2035C8.09754 24.0289 5.03854 24.8563 2 24.504C4.62831 26.1375 7.68782 27.0041 10.8123 27C21.4781 27 27.5051 18.2898 27.1367 10.4777C28.2598 9.69222 29.2293 8.71981 30 7.60594Z" fill="#1DA1F2"/>
</svg>
